<svg width="155" height="60" viewBox="0 0 155 60" fill="none" xmlns="http://www.w3.org/2000/svg">
<path d="M140 50H15C12.25 50 10 47.75 10 45V15C10 12.25 12.25 10 15 10H140C142.75 10 145 12.25 145 15V45C145 47.75 142.75 50 140 50Z" fill="black"/>
<path d="M140 10.8C142.32 10.8 144.2 12.68 144.2 15V45C144.2 47.32 142.32 49.2 140 49.2H15C12.68 49.2 10.8 47.32 10.8 45V15C10.8 12.68 12.68 10.8 15 10.8H140ZM140 10H15C12.25 10 10 12.25 10 15V45C10 47.75 12.25 50 15 50H140C142.75 50 145 47.75 145 45V15C145 12.25 142.75 10 140 10Z" fill="#A6A6A6"/>
<path d="M78.1398 31.7498C75.7898 31.7498 73.8698 33.5398 73.8698 35.9998C73.8698 38.4498 75.7898 40.2498 78.1398 40.2498C80.4898 40.2498 82.4098 38.4498 82.4098 35.9998C82.3998 33.5398 80.4898 31.7498 78.1398 31.7498ZM78.1398 38.5798C76.8498 38.5798 75.7398 37.5198 75.7398 35.9998C75.7398 34.4698 76.8498 33.4198 78.1398 33.4198C79.4298 33.4198 80.5398 34.4698 80.5398 35.9998C80.5398 37.5198 79.4198 38.5798 78.1398 38.5798ZM68.8198 31.7498C66.4698 31.7498 64.5498 33.5398 64.5498 35.9998C64.5498 38.4498 66.4698 40.2498 68.8198 40.2498C71.1698 40.2498 73.0898 38.4498 73.0898 35.9998C73.0898 33.5398 71.1698 31.7498 68.8198 31.7498ZM68.8198 38.5798C67.5298 38.5798 66.4198 37.5198 66.4198 35.9998C66.4198 34.4698 67.5298 33.4198 68.8198 33.4198C70.1098 33.4198 71.2198 34.4698 71.2198 35.9998C71.2198 37.5198 70.1098 38.5798 68.8198 38.5798ZM57.7398 33.0598V34.8598H62.0598C61.9298 35.8698 61.5898 36.6198 61.0798 37.1298C60.4498 37.7598 59.4698 38.4498 57.7398 38.4498C55.0798 38.4498 52.9998 36.3098 52.9998 33.6498C52.9998 30.9898 55.0798 28.8498 57.7398 28.8498C59.1698 28.8498 60.2198 29.4098 60.9898 30.1398L62.2598 28.8698C61.1798 27.8398 59.7498 27.0498 57.7298 27.0498C54.0898 27.0498 51.0298 30.0098 51.0298 33.6598C51.0298 37.2998 54.0898 40.2598 57.7298 40.2598C59.6898 40.2598 61.1798 39.6098 62.3398 38.4098C63.5298 37.2198 63.8998 35.5398 63.8998 34.1898C63.8998 33.7698 63.8698 33.3798 63.7998 33.0598H57.7398ZM103.05 34.4598C102.7 33.5098 101.62 31.7498 99.4098 31.7498C97.2198 31.7498 95.3998 33.4698 95.3998 35.9998C95.3998 38.3798 97.2098 40.2498 99.6198 40.2498C101.57 40.2498 102.7 39.0598 103.16 38.3698L101.71 37.3998C101.23 38.1098 100.57 38.5798 99.6198 38.5798C98.6698 38.5798 97.9898 38.1498 97.5598 37.2898L103.25 34.9398L103.05 34.4598ZM97.2498 35.8798C97.1998 34.2398 98.5198 33.3998 99.4698 33.3998C100.21 33.3998 100.84 33.7698 101.05 34.2998L97.2498 35.8798ZM92.6298 39.9998H94.4998V27.4998H92.6298V39.9998ZM89.5698 32.6998H89.4998C89.0798 32.1998 88.2698 31.7498 87.2598 31.7498C85.1298 31.7498 83.1798 33.6198 83.1798 36.0198C83.1798 38.3998 85.1298 40.2598 87.2598 40.2598C88.2798 40.2598 89.0798 39.8098 89.4998 39.2898H89.5598V39.8998C89.5598 41.5298 88.6898 42.3998 87.2898 42.3998C86.1498 42.3998 85.4398 41.5798 85.1498 40.8898L83.5198 41.5698C83.9898 42.6998 85.2298 44.0798 87.2898 44.0798C89.4798 44.0798 91.3298 42.7898 91.3298 39.6498V32.0098H89.5598L89.5698 32.6998ZM87.4198 38.5798C86.1298 38.5798 85.0498 37.4998 85.0498 36.0198C85.0498 34.5198 86.1298 33.4298 87.4198 33.4298C88.6898 33.4298 89.6898 34.5198 89.6898 36.0198C89.6998 37.4998 88.6998 38.5798 87.4198 38.5798ZM111.81 27.4998H107.34V39.9998H109.21V35.2598H111.81C113.88 35.2598 115.91 33.7598 115.91 31.3798C115.91 28.9998 113.87 27.4998 111.81 27.4998ZM111.85 33.5198H109.2V29.2398H111.85C113.25 29.2398 114.04 30.3998 114.04 31.3798C114.04 32.3498 113.25 33.5198 111.85 33.5198ZM123.39 31.7298C122.04 31.7298 120.64 32.3298 120.06 33.6398L121.72 34.3298C122.07 33.6398 122.73 33.4098 123.43 33.4098C124.39 33.4098 125.38 33.9898 125.39 35.0198V35.1498C125.05 34.9598 124.33 34.6698 123.44 34.6698C121.65 34.6698 119.84 35.6498 119.84 37.4798C119.84 39.1498 121.3 40.2298 122.94 40.2298C124.19 40.2298 124.89 39.6698 125.32 39.0098H125.38V39.9698H127.18V35.1798C127.18 32.9698 125.52 31.7298 123.39 31.7298ZM123.16 38.5798C122.55 38.5798 121.7 38.2698 121.7 37.5198C121.7 36.5598 122.76 36.1898 123.68 36.1898C124.5 36.1898 124.89 36.3698 125.38 36.6098C125.23 37.7598 124.24 38.5798 123.16 38.5798ZM133.74 31.9998L131.6 37.4198H131.54L129.32 31.9998H127.31L130.64 39.5798L128.74 43.7898H130.69L135.82 31.9998H133.74ZM116.94 39.9998H118.8V27.4998H116.94V39.9998Z" fill="white"/>
<path d="M20.44 17.5409C20.15 17.8509 19.98 18.3309 19.98 18.9409V41.0609C19.98 41.6809 20.15 42.1609 20.44 42.4709L20.51 42.5409L32.9 30.1509V30.0009V29.8509L20.51 17.4609L20.44 17.5409Z" fill="url(#paint0_linear_125_1197)"/>
<path d="M37.0304 34.2807L32.9004 30.1507V30.0007V29.8507L37.0304 25.7207L37.1204 25.7707L42.0104 28.5507C43.4104 29.3407 43.4104 30.6407 42.0104 31.4407L37.1204 34.2207L37.0304 34.2807Z" fill="url(#paint1_linear_125_1197)"/>
<path d="M37.1204 34.22L32.9004 30L20.4404 42.46C20.9004 42.95 21.6604 43.01 22.5204 42.52L37.1204 34.22Z" fill="url(#paint2_linear_125_1197)"/>
<path d="M37.1202 25.7805L22.5102 17.4805C21.6502 16.9905 20.8902 17.0505 20.4302 17.5405L32.9002 30.0005L37.1202 25.7805Z" fill="url(#paint3_linear_125_1197)"/>
<path opacity="0.2" d="M37.0302 34.1309L22.5202 42.3809C21.7102 42.8409 20.9802 42.8109 20.5202 42.3909L20.4502 42.4609L20.5202 42.5309C20.9902 42.9509 21.7102 42.9809 22.5202 42.5209L37.1302 34.2209L37.0302 34.1309Z" fill="black"/>
<path opacity="0.12" d="M20.44 42.3211C20.15 42.0111 19.98 41.5311 19.98 40.9111V41.0611C19.98 41.6811 20.15 42.1611 20.44 42.4711L20.51 42.4011L20.44 42.3211Z" fill="black"/>
<path opacity="0.12" d="M42.0203 31.3L37.0303 34.13L37.1203 34.22L42.0103 31.44C42.7103 31.04 43.0603 30.52 43.0603 30C43.0003 30.48 42.6503 30.94 42.0203 31.3Z" fill="black"/>
<path opacity="0.25" d="M22.5102 17.6204L42.0102 28.7004C42.6402 29.0604 43.0002 29.5204 43.0602 30.0004C43.0602 29.4804 42.7102 28.9504 42.0102 28.5604L22.5102 17.4804C21.1102 16.6904 19.9702 17.3504 19.9702 18.9504V19.1004C19.9702 17.4904 21.1202 16.8304 22.5102 17.6204Z" fill="white"/>
<defs>
<linearGradient id="paint0_linear_125_1197" x1="31.8006" y1="18.7101" x2="15.0185" y2="35.4922" gradientUnits="userSpaceOnUse">
<stop stop-color="#00A0FF"/>
<stop offset="0.0066" stop-color="#00A1FF"/>
<stop offset="0.2601" stop-color="#00BEFF"/>
<stop offset="0.5122" stop-color="#00D2FF"/>
<stop offset="0.7604" stop-color="#00DFFF"/>
<stop offset="1" stop-color="#00E3FF"/>
</linearGradient>
<linearGradient id="paint1_linear_125_1197" x1="43.8337" y1="30.0019" x2="19.6382" y2="30.0019" gradientUnits="userSpaceOnUse">
<stop stop-color="#FFE000"/>
<stop offset="0.4087" stop-color="#FFBD00"/>
<stop offset="0.7754" stop-color="#FFA500"/>
<stop offset="1" stop-color="#FF9C00"/>
</linearGradient>
<linearGradient id="paint2_linear_125_1197" x1="34.8287" y1="32.2946" x2="12.0697" y2="55.0535" gradientUnits="userSpaceOnUse">
<stop stop-color="#FF3A44"/>
<stop offset="1" stop-color="#C31162"/>
</linearGradient>
<linearGradient id="paint3_linear_125_1197" x1="17.2978" y1="10.1771" x2="27.4601" y2="20.3394" gradientUnits="userSpaceOnUse">
<stop stop-color="#32A071"/>
<stop offset="0.0685" stop-color="#2DA771"/>
<stop offset="0.4762" stop-color="#15CF74"/>
<stop offset="0.8009" stop-color="#06E775"/>
<stop offset="1" stop-color="#00F076"/>
</linearGradient>
</defs>
</svg>
