<svg width="30" height="30" viewBox="0 0 30 30" fill="none" xmlns="http://www.w3.org/2000/svg">
<g clip-path="url(#clip0_470_6133)">
<path d="M25.6066 4.39337C22.7734 1.56024 19.0066 0 15 0C10.9934 0 7.22656 1.56024 4.39337 4.39337C1.56024 7.22649 0 10.9933 0 15C0 19.0067 1.56024 22.7734 4.39337 25.6066C7.22649 28.4398 10.9933 30 14.9999 30C19.0066 30 22.7734 28.4398 25.6066 25.6066C28.4397 22.7735 29.9999 19.0067 29.9999 15C29.9999 10.9933 28.4397 7.22649 25.6066 4.39337ZM15 28.8126C7.3837 28.8126 1.18745 22.6162 1.18745 15C1.18745 7.38376 7.3837 1.18745 15 1.18745C22.6163 1.18745 28.8125 7.38376 28.8125 15C28.8125 22.6162 22.6162 28.8126 15 28.8126Z" fill="#323941"/>
<path d="M14.9999 3.7561C8.79995 3.7561 3.75586 8.80013 3.75586 15.0001C3.75586 21.2001 8.79988 26.2442 14.9999 26.2442C21.1999 26.2442 26.2439 21.2001 26.2439 15.0001C26.2439 8.80013 21.1998 3.7561 14.9999 3.7561ZM14.9999 25.0567C9.4547 25.0567 4.94331 20.5453 4.94331 15.0001C4.94331 9.45494 9.45463 4.94355 14.9999 4.94355C20.5451 4.94355 25.0565 9.45487 25.0565 15.0001C25.0565 20.5454 20.5451 25.0567 14.9999 25.0567Z" fill="#323941"/>
<path d="M17.0871 14.9997C17.0871 13.8488 16.1508 12.9126 14.9999 12.9126C13.8491 12.9126 12.9128 13.8488 12.9128 14.9997C12.9128 16.1505 13.8491 17.0868 14.9999 17.0868C16.1508 17.0868 17.0871 16.1505 17.0871 14.9997ZM14.1003 14.9997C14.1003 14.5036 14.5039 14.1 14.9999 14.1C15.496 14.1 15.8996 14.5036 15.8996 14.9997C15.8996 15.4958 15.496 15.8993 14.9999 15.8993C14.5039 15.8993 14.1003 15.4957 14.1003 14.9997Z" fill="#323941"/>
<path d="M15 5.79797C9.92589 5.79797 5.79785 9.92601 5.79785 15.0001C5.79785 20.0742 9.92596 24.2023 15 24.2023C20.0741 24.2023 24.2022 20.0742 24.2022 15.0001C24.2022 9.92601 20.0741 5.79797 15 5.79797ZM23.0147 15.0002C23.0147 15.865 22.8764 16.698 22.6218 17.479L19.3751 15.3446C19.2074 15.2344 19.1893 15.067 19.1893 15.0002C19.1893 14.9334 19.2074 14.7659 19.3751 14.6558L22.6218 12.5214C22.8765 13.3023 23.0147 14.1353 23.0147 15.0002ZM20.9537 9.64063L17.4856 11.3828C17.3062 11.4729 17.1523 11.4048 17.0944 11.3715C17.0365 11.338 16.9006 11.2387 16.889 11.0383L16.6639 7.15965C18.3493 7.51694 19.8405 8.40515 20.9537 9.64063ZM13.3357 7.15971L13.1106 11.0389C13.099 11.2392 12.9631 11.3386 12.9053 11.372C12.8473 11.4054 12.6933 11.4734 12.5141 11.3833L9.04612 9.64076C10.1593 8.40528 11.6505 7.51707 13.3357 7.15971ZM6.98524 15.0002C6.98524 14.1354 7.12351 13.3024 7.37808 12.5214L10.6246 14.6557C10.7923 14.7659 10.8103 14.9333 10.8103 15.0001C10.8103 15.0669 10.7923 15.2343 10.6246 15.3445L7.37808 17.4788C7.12351 16.6979 6.98524 15.8649 6.98524 15.0002ZM9.04625 20.3597L12.5141 18.6174C12.6934 18.5274 12.8473 18.5954 12.9053 18.6288C12.9631 18.6622 13.0991 18.7616 13.1107 18.9618L13.3357 22.8406C11.6506 22.4833 10.1595 21.5951 9.04625 20.3597ZM14.5344 23.001L14.2962 18.8931C14.2648 18.3538 13.9668 17.8706 13.4991 17.6004C13.0312 17.3303 12.4637 17.3139 11.981 17.5564L8.30621 19.4027C8.13555 19.1441 7.9794 18.8751 7.83908 18.5968L11.2769 16.3368C11.7283 16.0401 11.9978 15.5403 11.9978 15.0001C11.9978 14.4599 11.7283 13.9602 11.2769 13.6634L7.83908 11.4034C7.9794 11.1252 8.13548 10.8564 8.30601 10.5978L11.9808 12.4444C12.208 12.5585 12.4538 12.6153 12.6993 12.6153C12.9756 12.6153 13.2512 12.5434 13.4989 12.4004C13.9668 12.1302 14.2648 11.647 14.296 11.1077L14.5343 6.99934C14.6884 6.9905 14.8436 6.98549 14.9999 6.98549C15.1561 6.98549 15.3112 6.9905 15.4652 6.99934L15.7035 11.1072C15.7348 11.6465 16.0327 12.1297 16.5006 12.3999C16.7483 12.5429 17.024 12.6149 17.3003 12.6149C17.5457 12.6149 17.7916 12.5581 18.0186 12.444L21.6938 10.5978C21.8644 10.8563 22.0205 11.1251 22.1608 11.4033L18.7228 13.6634C18.2714 13.9602 18.0019 14.4599 18.0019 15.0001C18.0019 15.5403 18.2714 16.0401 18.7228 16.3368L22.1608 18.597C22.0205 18.8752 21.8644 19.144 21.6939 19.4025L18.0188 17.5558C17.5361 17.3132 16.9686 17.3297 16.5007 17.5998C16.0329 17.8699 15.7349 18.3531 15.7036 18.8925L15.4653 23.001C15.3112 23.0099 15.1562 23.0149 15 23.0149C14.8436 23.0149 14.6886 23.0099 14.5344 23.001ZM16.664 22.8407L16.889 18.9613C16.9006 18.761 17.0365 18.6616 17.0945 18.6282C17.1523 18.5948 17.3064 18.5267 17.4857 18.6168L20.9539 20.3595C19.8406 21.5951 18.3493 22.4834 16.664 22.8407Z" fill="#323941"/>
</g>
<defs>
<clipPath id="clip0_470_6133">
<rect width="30" height="30" fill="white"/>
</clipPath>
</defs>
</svg>
