<svg width="30" height="30" viewBox="0 0 30 30" fill="none" xmlns="http://www.w3.org/2000/svg">
<g clip-path="url(#clip0_470_6151)">
<path d="M29.0619 2.73112L27.2466 0.928189C26.0631 -0.247202 24.0684 -0.315756 22.8 0.775845L19.6106 3.52213C19.5699 3.55729 19.5345 3.59889 19.5068 3.64459L16.4012 8.78209L14.4071 9.44186C14.2384 9.49752 14.1115 9.63639 14.0702 9.80748C14.0289 9.97858 14.0808 10.1596 14.2065 10.2844L19.6407 15.6809C19.7381 15.7776 19.8684 15.8297 20.003 15.8297C20.0425 15.8297 20.0814 15.8251 20.1204 15.8163C20.2932 15.7758 20.4325 15.6493 20.4885 15.4817L21.1534 13.5006L26.4018 10.353C26.4478 10.3255 26.4897 10.2903 26.5245 10.2499L29.2242 7.14264C30.3186 5.8858 30.2454 3.90651 29.0619 2.73112ZM28.4502 6.47877L25.8035 9.52448L20.4631 12.7272C20.3587 12.7899 20.2802 12.8872 20.2419 13.002L19.7794 14.3796L18.5546 13.1631L18.554 13.1626L16.7428 11.3637L16.7422 11.3631L15.5174 10.1467L16.9044 9.68737C17.0207 9.64869 17.1186 9.57076 17.1817 9.46647L20.3428 4.23756L23.4714 1.54459C24.3416 0.795181 25.7103 0.84147 26.5221 1.64772L28.3375 3.45065C29.1499 4.25748 29.2 5.61569 28.4502 6.47877Z" fill="#323941"/>
<path d="M27.6094 20.4445C26.105 18.9509 23.8914 18.4312 21.8855 19.0775L10.9976 8.26402C11.6478 6.27183 11.1251 4.07281 9.62123 2.57925C8.03657 1.00542 5.66429 0.512648 3.57698 1.32534C3.41592 1.38804 3.29792 1.52691 3.26252 1.69507C3.22713 1.86323 3.27963 2.03726 3.40176 2.15913L6.66076 5.39585L4.4873 7.55445L1.22831 4.31714C1.10618 4.19585 0.930371 4.1437 0.761049 4.17886C0.591727 4.21402 0.451904 4.3312 0.388778 4.49117C-0.428922 6.56363 0.0666535 8.91968 1.65131 10.4941C3.15574 11.9877 5.36931 12.5074 7.37521 11.8617L11.4466 15.9052L6.37639 20.9408L3.15161 22.7314C3.06193 22.7812 2.98937 22.8568 2.94335 22.9482L1.49438 25.8263C1.39586 26.022 1.43421 26.2588 1.59055 26.4134L3.40176 28.2123C3.50028 28.3101 3.63126 28.3611 3.764 28.3611C3.84188 28.3611 3.92034 28.3435 3.99291 28.3072L6.89084 26.8681C6.98288 26.8224 7.05899 26.7504 7.10913 26.6613L8.91208 23.4586L13.9823 18.4236L18.2631 22.6752C17.613 24.6673 18.1357 26.8658 19.6401 28.3599C20.7174 29.4298 22.1593 30 23.6277 30C24.3192 30 25.0165 29.8734 25.6844 29.6138C25.8454 29.5511 25.9634 29.4123 25.9988 29.2441C26.0342 29.0759 25.9817 28.9019 25.8596 28.78L22.6006 25.5433L24.774 23.3847L28.033 26.6214C28.1552 26.7427 28.331 26.7949 28.5003 26.7597C28.6696 26.7246 28.8094 26.6074 28.8726 26.4474C29.6897 24.3744 29.1941 22.0183 27.6094 20.4445ZM8.13745 22.7888C8.10382 22.8222 8.07551 22.8591 8.0525 22.9002L6.29202 26.0279L3.86547 27.2332L2.57639 25.9529L3.78996 23.5429L6.93922 21.7945C6.98052 21.7716 7.01828 21.7435 7.05132 21.7101L12.1717 16.6248L13.2584 17.7041L8.13745 22.7888ZM28.1481 25.2966L25.1363 22.3054C24.9363 22.1068 24.6118 22.1068 24.4118 22.3054L21.5139 25.1836C21.4177 25.2791 21.364 25.4086 21.364 25.5433C21.364 25.6781 21.4183 25.8076 21.5139 25.9031L24.5257 28.8943C23.0324 29.189 21.4661 28.7338 20.3646 27.6404C19.0678 26.3525 18.6625 24.4248 19.3316 22.7285C19.4059 22.5404 19.3611 22.3259 19.2171 22.183L7.87078 10.9142C7.77285 10.8169 7.64188 10.7654 7.50854 10.7654C7.44601 10.7654 7.38229 10.7771 7.32152 10.8005C5.61415 11.465 3.67255 11.0625 2.3758 9.77457C1.27432 8.68062 0.815916 7.12496 1.11326 5.64195L4.12506 8.63316C4.32506 8.83179 4.64955 8.83179 4.84955 8.63316L7.74748 5.75503C7.94748 5.5564 7.94748 5.23414 7.74748 5.0355L4.73568 2.04429C6.2289 1.74898 7.79527 2.20484 8.89674 3.2982C10.1935 4.58609 10.5988 6.51382 9.92978 8.21011C9.85545 8.3982 9.90028 8.61265 10.0442 8.75562L21.3906 20.0244C21.5345 20.1673 21.7504 20.2119 21.9398 20.138C23.6478 19.4736 25.5888 19.8761 26.8855 21.164C27.9864 22.258 28.4448 23.8136 28.1481 25.2966Z" fill="#323941"/>
</g>
<defs>
<clipPath id="clip0_470_6151">
<rect width="30" height="30" fill="white"/>
</clipPath>
</defs>
</svg>
