<svg width="25" height="25" viewBox="0 0 25 25" fill="none" xmlns="http://www.w3.org/2000/svg">
<g clip-path="url(#clip0_470_6113)">
<path d="M24.1445 6.76548L17.7754 0.147363C17.6848 0.0532227 17.5597 0 17.429 0H7.93633C6.87397 0 6.00967 0.863965 6.00967 1.92588V8.65386H2.16265C1.36782 8.65386 0.721191 9.30029 0.721191 10.0949V17.309C0.721191 18.1036 1.36782 18.75 2.16265 18.75H6.00967V23.0775C6.00967 24.1376 6.87397 25 7.93633 25H22.3522C23.4146 25 24.2789 24.138 24.2789 23.0786V7.09888C24.2789 6.97456 24.2307 6.85508 24.1445 6.76548ZM17.5481 1.2979L22.7766 6.73076H17.5481V1.2979ZM2.16265 17.7885C1.898 17.7885 1.68276 17.5734 1.68276 17.309V10.0949C1.68276 9.83052 1.89805 9.61538 2.16265 9.61538H15.1452C15.4098 9.61538 15.625 9.83052 15.625 10.0949V17.309C15.625 17.5734 15.4098 17.7885 15.1452 17.7885H2.16265ZM23.3173 23.0786C23.3173 23.6079 22.8844 24.0385 22.3522 24.0385H7.93633C7.40415 24.0385 6.97119 23.6074 6.97119 23.0775V18.75H15.1452C15.94 18.75 16.5866 18.1036 16.5866 17.309V10.0949C16.5866 9.30029 15.94 8.65386 15.1452 8.65386H6.97119V1.92588C6.97119 1.39409 7.40415 0.961523 7.93633 0.961523H16.5866V7.21152C16.5866 7.47705 16.8019 7.69229 17.0673 7.69229H23.3173V23.0786Z" fill="white"/>
<path d="M6.46875 12.2019C6.30913 11.9944 6.11098 11.8596 5.87436 11.7977C5.72036 11.7564 5.38984 11.7357 4.88276 11.7357H3.54468V15.8654H4.37851V14.3076H4.92222C5.29971 14.3076 5.58799 14.2879 5.78706 14.2485C5.93354 14.2165 6.07768 14.1513 6.21948 14.0527C6.36128 13.9541 6.47817 13.8184 6.57021 13.6456C6.66225 13.4729 6.70825 13.2597 6.70825 13.0062C6.7082 12.6775 6.62837 12.4094 6.46875 12.2019ZM5.75464 13.3386C5.69175 13.4306 5.60488 13.4982 5.49404 13.5414C5.3832 13.5846 5.16352 13.6062 4.83486 13.6062H4.37851V12.4344H4.78135C5.08183 12.4344 5.28183 12.4437 5.38135 12.4625C5.51655 12.4869 5.62832 12.548 5.71655 12.6456C5.80483 12.7433 5.84897 12.8673 5.84897 13.0175C5.84902 13.1395 5.81753 13.2466 5.75464 13.3386Z" fill="white"/>
<path d="M10.7168 12.8639C10.6267 12.6001 10.4952 12.3771 10.3224 12.1949C10.1497 12.0127 9.94209 11.886 9.69985 11.8146C9.51958 11.762 9.25757 11.7357 8.91392 11.7357H7.38989V15.8654H8.95898C9.26699 15.8654 9.51299 15.8363 9.69702 15.7781C9.94307 15.6992 10.1384 15.5894 10.283 15.4485C10.4745 15.2626 10.6219 15.0194 10.7252 14.7189C10.8098 14.4729 10.852 14.1799 10.852 13.84C10.852 13.4531 10.8069 13.1278 10.7168 12.8639ZM9.90547 14.5598C9.84912 14.7448 9.77637 14.8777 9.68716 14.9584C9.59795 15.0391 9.48574 15.0964 9.35054 15.1302C9.24727 15.1565 9.07915 15.1696 8.84629 15.1696H8.22373V12.4344H8.59839C8.93828 12.4344 9.1665 12.4475 9.28291 12.4738C9.43877 12.5076 9.56743 12.5724 9.66885 12.6682C9.77026 12.764 9.84912 12.8973 9.90547 13.0682C9.96182 13.2391 9.98999 13.4842 9.98999 13.8034C9.98999 14.1227 9.96182 14.3748 9.90547 14.5598Z" fill="white"/>
<path d="M14.3958 12.4344V11.7357H11.5647V15.8654H12.3985V14.1105H14.1226V13.4118H12.3985V12.4344H14.3958Z" fill="white"/>
</g>
<defs>
<clipPath id="clip0_470_6113">
<rect width="25" height="25" fill="white"/>
</clipPath>
</defs>
</svg>
